<svg width="30" height="30" viewBox="0 0 30 30" fill="none" xmlns="http://www.w3.org/2000/svg">
<path d="M21.8371 23.1629C22.2032 23.5291 22.7968 23.5291 23.1629 23.1629C23.5291 22.7968 23.5291 22.2032 23.1629 21.8371L16.3258 15L23.1629 8.16293C23.5291 7.79681 23.5291 7.20322 23.1629 6.8371C22.7968 6.47099 22.2032 6.47099 21.8371 6.8371L15 13.6742L8.16291 6.83709C7.7968 6.47097 7.2032 6.47097 6.83709 6.83709C6.47097 7.2032 6.47097 7.7968 6.83709 8.16291L13.6742 15L6.8371 21.8371C6.47098 22.2032 6.47098 22.7968 6.8371 23.163C7.20321 23.5291 7.7968 23.5291 8.16292 23.163L15 16.3259L21.8371 23.1629Z" fill="#204933"/>
</svg>
