<?xml version="1.0" encoding="UTF-8"?>
<svg version="1.1" xmlns="http://www.w3.org/2000/svg" width="180" height="180">
<path d="M0 0 C7.59 0 15.18 0 23 0 C23 0.66 23 1.32 23 2 C23.66 2 24.32 2 25 2 C25 1.34 25 0.68 25 0 C26.32 0 27.64 0 29 0 C29 0.66 29 1.32 29 2 C30.65 2 32.3 2 34 2 C34 2.99 34 3.98 34 5 C39.61 5 45.22 5 51 5 C51 5.99 51 6.98 51 8 C51.78375 7.95875 52.5675 7.9175 53.375 7.875 C56 8 56 8 58 10 C60.32275177 10.40047444 62.65739357 10.7397104 65 11 C65 11.66 65 12.32 65 13 C65.99 13.33 66.98 13.66 68 14 C68 14.66 68 15.32 68 16 C68.66 16 69.32 16 70 16 C70 16.99 70 17.98 70 19 C71.98 19 73.96 19 76 19 C76 19.99 76 20.98 76 22 C77.65 22 79.3 22 81 22 C81 23.65 81 25.3 81 27 C81.99 27 82.98 27 84 27 C84 27.99 84 28.98 84 30 C84.66 30 85.32 30 86 30 C86 29.01 86 28.02 86 27 C87.98 27.33 89.96 27.66 92 28 C92.33 29.98 92.66 31.96 93 34 C91.68 34.33 90.36 34.66 89 35 C89.33 35.99 89.66 36.98 90 38 C90.66 38 91.32 38 92 38 C92 37.34 92 36.68 92 36 C92.99 36 93.98 36 95 36 C95 37.65 95 39.3 95 41 C95.99 41.33 96.98 41.66 98 42 C98 43.98 98 45.96 98 48 C97.01 48 96.02 48 95 48 C95 49.32 95 50.64 95 52 C97.64 52 100.28 52 103 52 C103 55.3 103 58.6 103 62 C101.35 62 99.7 62 98 62 C97.67 61.01 97.34 60.02 97 59 C96.01 58.67 95.02 58.34 94 58 C94 56.35 94 54.7 94 53 C93.34 53 92.68 53 92 53 C92.33 55.31 92.66 57.62 93 60 C93.66 60 94.32 60 95 60 C95 61.98 95 63.96 95 66 C96.98 66 98.96 66 101 66 C101 66.99 101 67.98 101 69 C101.66 69 102.32 69 103 69 C103 70.98 103 72.96 103 75 C102.01 75 101.02 75 100 75 C100 74.34 100 73.68 100 73 C99.34 73 98.68 73 98 73 C98 79.6 98 86.2 98 93 C99.65 93 101.3 93 103 93 C103 101.91 103 110.82 103 120 C102.34 120 101.68 120 101 120 C101 122.31 101 124.62 101 127 C100.01 127.33 99.02 127.66 98 128 C98 129.65 98 131.3 98 133 C97.01 133 96.02 133 95 133 C95 134.98 95 136.96 95 139 C94.34 139 93.68 139 93 139 C93 140.65 93 142.3 93 144 C92.01 144.33 91.02 144.66 90 145 C89.67 146.65 89.34 148.3 89 150 C88.34 150 87.68 150 87 150 C87 150.99 87 151.98 87 153 C85.02 153 83.04 153 81 153 C81 153.99 81 154.98 81 156 C80.34 156 79.68 156 79 156 C79 156.66 79 157.32 79 158 C78.01 158 77.02 158 76 158 C76 158.99 76 159.98 76 161 C75.01 161 74.02 161 73 161 C73 161.99 73 162.98 73 164 C70.36 164 67.72 164 65 164 C65 164.99 65 165.98 65 167 C64.01 167 63.02 167 62 167 C61.67 167.99 61.34 168.98 61 170 C57.3558226 172.4294516 55.28758728 172.16179575 51 172 C51 172.99 51 173.98 51 175 C49.02 175 47.04 175 45 175 C45 175.99 45 176.98 45 178 C42.36 178 39.72 178 37 178 C37 178.66 37 179.32 37 180 C31.06 180 25.12 180 19 180 C19 178.35 19 176.7 19 175 C18.01 175 17.02 175 16 175 C13.89571616 169.87080814 13.78244334 165.4389165 14 160 C14.66 160 15.32 160 16 160 C16 159.34 16 158.68 16 158 C15.34 158 14.68 158 14 158 C14 154.04 14 150.08 14 146 C17.96 146 21.92 146 26 146 C26 146.99 26 147.98 26 149 C26.66 149 27.32 149 28 149 C28 147.68 28 146.36 28 145 C27.01 145 26.02 145 25 145 C25 143.02 25 141.04 25 139 C23.35 138.67 21.7 138.34 20 138 C20 137.34 20 136.68 20 136 C20.66 136 21.32 136 22 136 C22 135.01 22 134.02 22 133 C21.195625 133.185625 20.39125 133.37125 19.5625 133.5625 C18.2940625 133.7790625 18.2940625 133.7790625 17 134 C16 133 16 133 15.9375 129.9375 C15.958125 128.968125 15.97875 127.99875 16 127 C16.99 127 17.98 127 19 127 C19 126.236875 19 125.47375 19 124.6875 C19 122.125 19 119.5625 19 117 C18.34 117 17.68 117 17 117 C17 117.66 17 118.32 17 119 C15.35 119.33 13.7 119.66 12 120 C12 120.66 12 121.32 12 122 C10.02 122 8.04 122 6 122 C6 121.34 6 120.68 6 120 C4.515 119.505 4.515 119.505 3 119 C3 117.35 3 115.7 3 114 C2.01 114 1.02 114 0 114 C0 110.37 0 106.74 0 103 C0.99 102.67 1.98 102.34 3 102 C3 100.02 3 98.04 3 96 C3.99 96 4.98 96 6 96 C6 95.34 6 94.68 6 94 C6.99 94 7.98 94 9 94 C9.495 97.96 9.495 97.96 10 102 C10.66 102 11.32 102 12 102 C12 102.99 12 103.98 12 105 C12.66 105 13.32 105 14 105 C14.495 103.515 14.495 103.515 15 102 C16.32 102 17.64 102 19 102 C19.495 100.515 19.495 100.515 20 99 C22.97 99 25.94 99 29 99 C29.33 100.98 29.66 102.96 30 105 C30.99 105 31.98 105 33 105 C33 104.01 33 103.02 33 102 C35.31 102 37.62 102 40 102 C40 102.99 40 103.98 40 105 C41.32 105 42.64 105 44 105 C44 104.01 44 103.02 44 102 C46.31 102 48.62 102 51 102 C51 102.99 51 103.98 51 105 C51.99 105 52.98 105 54 105 C54 105.66 54 106.32 54 107 C55.65 107 57.3 107 59 107 C59 108.98 59 110.96 59 113 C59.99 113 60.98 113 62 113 C62 113.99 62 114.98 62 116 C62.99 116 63.98 116 65 116 C65 116.66 65 117.32 65 118 C66.32 118 67.64 118 69 118 C69.33 116.68 69.66 115.36 70 114 C72.475 113.505 72.475 113.505 75 113 C75 112.01 75 111.02 75 110 C75.99 110 76.98 110 78 110 C78 108.35 78 106.7 78 105 C77.01 105 76.02 105 75 105 C75.33 104.01 75.66 103.02 76 102 C76.66 102 77.32 102 78 102 C78 99.36 78 96.72 78 94 C77.01 94 76.02 94 75 94 C75 93.34 75 92.68 75 92 C72.36 92 69.72 92 67 92 C66.67 89.36 66.34 86.72 66 84 C63.36 84 60.72 84 58 84 C58 83.01 58 82.02 58 81 C56.515 80.505 56.515 80.505 55 80 C55 79.34 55 78.68 55 78 C53.35 78 51.7 78 50 78 C50 77.01 50 76.02 50 75 C47.03 75 44.06 75 41 75 C41 74.34 41 73.68 41 73 C39.68 73 38.36 73 37 73 C37 73.66 37 74.32 37 75 C35.68 75 34.36 75 33 75 C33 74.34 33 73.68 33 73 C30.36 72.67 27.72 72.34 25 72 C25 71.34 25 70.68 25 70 C23.02 70 21.04 70 19 70 C19 68.02 19 66.04 19 64 C17.35 64 15.7 64 14 64 C14 63.01 14 62.02 14 61 C13.01 61 12.02 61 11 61 C11 60.34 11 59.68 11 59 C10.01 59 9.02 59 8 59 C8 58.01 8 57.02 8 56 C6.35 56 4.7 56 3 56 C3 55.01 3 54.02 3 53 C-1.29 53 -5.58 53 -10 53 C-10.33 53.99 -10.66 54.98 -11 56 C-17 56 -23 56 -29 56 C-29.33 56.99 -29.66 57.98 -30 59 C-32.64 59 -35.28 59 -38 59 C-38 59.99 -38 60.98 -38 62 C-39.65 62 -41.3 62 -43 62 C-43 62.66 -43 63.32 -43 64 C-43.99 64 -44.98 64 -46 64 C-46 64.66 -46 65.32 -46 66 C-45.34 66 -44.68 66 -44 66 C-44 66.99 -44 67.98 -44 69 C-44.66 69 -45.32 69 -46 69 C-46 70.32 -46 71.64 -46 73 C-46.99 73 -47.98 73 -49 73 C-49 73.66 -49 74.32 -49 75 C-49.99 75 -50.98 75 -52 75 C-52 76.65 -52 78.3 -52 80 C-49.36 80 -46.72 80 -44 80 C-44 79.34 -44 78.68 -44 78 C-43.01 78 -42.02 78 -41 78 C-41 78.66 -41 79.32 -41 80 C-40.01 80 -39.02 80 -38 80 C-37.505 80.99 -37.505 80.99 -37 82 C-34.87423218 82.46651207 -34.87423218 82.46651207 -32.4375 82.625 C-31.61121094 82.69976562 -30.78492188 82.77453125 -29.93359375 82.8515625 C-28.97646484 82.92503906 -28.97646484 82.92503906 -28 83 C-28 82.01 -28 81.02 -28 80 C-25.03 80 -22.06 80 -19 80 C-19 79.34 -19 78.68 -19 78 C-18.01 78 -17.02 78 -16 78 C-15.67 79.32 -15.34 80.64 -15 82 C-14.34 82 -13.68 82 -13 82 C-13 82.99 -13 83.98 -13 85 C-12.34 85 -11.68 85 -11 85 C-11 82.36 -11 79.72 -11 77 C-10.01 77 -9.02 77 -8 77 C-8 76.01 -8 75.02 -8 74 C-6.02 74.33 -4.04 74.66 -2 75 C-2 75.66 -2 76.32 -2 77 C-1.01 77 -0.02 77 1 77 C1 79.97 1 82.94 1 86 C0.01 86 -0.98 86 -2 86 C-2 86.99 -2 87.98 -2 89 C-3.98 89 -5.96 89 -8 89 C-8 88.34 -8 87.68 -8 87 C-8.66 87 -9.32 87 -10 87 C-10 88.32 -10 89.64 -10 91 C-9.01 91.33 -8.02 91.66 -7 92 C-7 94.31 -7 96.62 -7 99 C-6.34 99 -5.68 99 -5 99 C-4.61866701 100.9914056 -4.28674418 102.99279077 -4 105 C-5 106 -5 106 -8.81640625 106.09765625 C-10.39846682 106.09098089 -11.98051159 106.07901875 -13.5625 106.0625 C-14.36880859 106.05798828 -15.17511719 106.05347656 -16.00585938 106.04882812 C-18.00393756 106.03700518 -20.00197783 106.01906914 -22 106 C-22 105.01 -22 104.02 -22 103 C-22.94875 103.020625 -23.8975 103.04125 -24.875 103.0625 C-28 103 -28 103 -30 102 C-30 101.34 -30 100.68 -30 100 C-30.66 100 -31.32 100 -32 100 C-32.33 101.65 -32.66 103.3 -33 105 C-36.465 105.495 -36.465 105.495 -40 106 C-40.33 106.99 -40.66 107.98 -41 109 C-41.66 109 -42.32 109 -43 109 C-43.33 110.65 -43.66 112.3 -44 114 C-44.66 114 -45.32 114 -46 114 C-46 115.65 -46 117.3 -46 119 C-45.01 119 -44.02 119 -43 119 C-43 123.29 -43 127.58 -43 132 C-41.68 132 -40.36 132 -39 132 C-39 131.34 -39 130.68 -39 130 C-36.36 130 -33.72 130 -31 130 C-31 129.01 -31 128.02 -31 127 C-27.7 127 -24.4 127 -21 127 C-21 127.99 -21 128.98 -21 130 C-20.34 130 -19.68 130 -19 130 C-19 129.01 -19 128.02 -19 127 C-18.34 127 -17.68 127 -17 127 C-17 126.01 -17 125.02 -17 124 C-15.02 124 -13.04 124 -11 124 C-11 123.01 -11 122.02 -11 121 C-8.03 121 -5.06 121 -2 121 C-2 123.31 -2 125.62 -2 128 C-2.66 128 -3.32 128 -4 128 C-4 130.64 -4 133.28 -4 136 C-4.99 136 -5.98 136 -7 136 C-7 136.99 -7 137.98 -7 139 C-7.99 139 -8.98 139 -10 139 C-10 141.31 -10 143.62 -10 146 C-8.68 146 -7.36 146 -6 146 C-5.67 145.01 -5.34 144.02 -5 143 C-4.01 143 -3.02 143 -2 143 C-2 144.32 -2 145.64 -2 147 C-1.01 147 -0.02 147 1 147 C1 148.65 1 150.3 1 152 C2.65 152 4.3 152 6 152 C6.87890625 158.15234375 6.87890625 158.15234375 7 160 C6 161 6 161 3.4375 161.0625 C2.633125 161.041875 1.82875 161.02125 1 161 C1 161.66 1 162.32 1 163 C1.99 163.33 2.98 163.66 4 164 C4 164.66 4 165.32 4 166 C3.01 166 2.02 166 1 166 C1 168.97 1 171.94 1 175 C-1.64 175 -4.28 175 -7 175 C-7 175.66 -7 176.32 -7 177 C-9.31 177.33 -11.62 177.66 -14 178 C-14 177.01 -14 176.02 -14 175 C-15.65 175 -17.3 175 -19 175 C-19 174.01 -19 173.02 -19 172 C-19.99 172 -20.98 172 -22 172 C-22 171.34 -22 170.68 -22 170 C-23.65 170 -25.3 170 -27 170 C-27.33 169.01 -27.66 168.02 -28 167 C-28.66 167 -29.32 167 -30 167 C-30 166.01 -30 165.02 -30 164 C-30.99 163.67 -31.98 163.34 -33 163 C-33 162.34 -33 161.68 -33 161 C-34.98 161 -36.96 161 -39 161 C-39 159.35 -39 157.7 -39 156 C-40.65 156 -42.3 156 -44 156 C-44 155.01 -44 154.02 -44 153 C-44.99 153 -45.98 153 -47 153 C-47 151.02 -47 149.04 -47 147 C-47.99 147 -48.98 147 -50 147 C-50 146.34 -50 145.68 -50 145 C-50.99 144.67 -51.98 144.34 -53 144 C-53 142.35 -53 140.7 -53 139 C-54.65 139 -56.3 139 -58 139 C-58 138.01 -58 137.02 -58 136 C-58.66 136 -59.32 136 -60 136 C-60.33 134.02 -60.66 132.04 -61 130 C-61.66 130 -62.32 130 -63 130 C-63.495 127.525 -63.495 127.525 -64 125 C-64.99 125 -65.98 125 -67 125 C-67 124.01 -67 123.02 -67 122 C-67.66 122 -68.32 122 -69 122 C-69 119.03 -69 116.06 -69 113 C-68.34 113 -67.68 113 -67 113 C-66.67 112.01 -66.34 111.02 -66 110 C-65.34 110 -64.68 110 -64 110 C-64 108.68 -64 107.36 -64 106 C-64.66 106 -65.32 106 -66 106 C-66.96465491 98.77648171 -67.11956114 91.71937932 -67.0625 84.4375 C-67.05798828 83.33341797 -67.05347656 82.22933594 -67.04882812 81.09179688 C-67.0371514 78.394473 -67.02077525 75.69726653 -67 73 C-67.66 73 -68.32 73 -69 73 C-69 70.69 -69 68.38 -69 66 C-68.34 66 -67.68 66 -67 66 C-66.938125 65.05125 -66.87625 64.1025 -66.8125 63.125 C-66.544375 62.09375 -66.27625 61.0625 -66 60 C-63.4375 58.625 -63.4375 58.625 -61 58 C-61 56.35 -61 54.7 -61 53 C-59.515 52.505 -59.515 52.505 -58 52 C-58 51.01 -58 50.02 -58 49 C-57.01 49 -56.02 49 -55 49 C-55 47.35 -55 45.7 -55 44 C-54.34 44 -53.68 44 -53 44 C-52.67 43.01 -52.34 42.02 -52 41 C-51.34 41 -50.68 41 -50 41 C-50 40.01 -50 39.02 -50 38 C-49.01 38 -48.02 38 -47 38 C-47 36.35 -47 34.7 -47 33 C-46.01 33 -45.02 33 -44 33 C-44 32.34 -44 31.68 -44 31 C-42.35 30.67 -40.7 30.34 -39 30 C-39 28.35 -39 26.7 -39 25 C-38.01 24.67 -37.02 24.34 -36 24 C-36 23.34 -36 22.68 -36 22 C-35.01 22 -34.02 22 -33 22 C-33 19.03 -33 16.06 -33 13 C-31.02 13 -29.04 13 -27 13 C-27 13.99 -27 14.98 -27 16 C-26.34 16 -25.68 16 -25 16 C-25 15.01 -25 14.02 -25 13 C-24.01 13 -23.02 13 -22 13 C-22 12.34 -22 11.68 -22 11 C-20.35 10.67 -18.7 10.34 -17 10 C-17 9.34 -17 8.68 -17 8 C-13.37 8 -9.74 8 -6 8 C-6 7.01 -6 6.02 -6 5 C-5.01 5 -4.02 5 -3 5 C-2.67 4.01 -2.34 3.02 -2 2 C-1.34 2 -0.68 2 0 2 C0 1.34 0 0.68 0 0 Z M76 28 C76 28.66 76 29.32 76 30 C76.66 30 77.32 30 78 30 C78 29.34 78 28.68 78 28 C77.34 28 76.68 28 76 28 Z M84 41 C84 41.99 84 42.98 84 44 C85.65 44 87.3 44 89 44 C89 42.35 89 40.7 89 39 C86.67642489 38.81509993 86.67642489 38.81509993 84 41 Z M92 42 C92 42.66 92 43.32 92 44 C92.66 44 93.32 44 94 44 C94 43.34 94 42.68 94 42 C93.34 42 92.68 42 92 42 Z M23 111 C23 111.66 23 112.32 23 113 C23.66 113 24.32 113 25 113 C25 112.34 25 111.68 25 111 C24.34 111 23.68 111 23 111 Z M29 111 C29 111.66 29 112.32 29 113 C29.66 113 30.32 113 31 113 C31 112.34 31 111.68 31 111 C30.34 111 29.68 111 29 111 Z M48 117 C48 117.99 48 118.98 48 120 C45.36 120 42.72 120 40 120 C40 120.66 40 121.32 40 122 C38.02 122 36.04 122 34 122 C34 123.98 34 125.96 34 128 C33.34 128 32.68 128 32 128 C32 129.32 32 130.64 32 132 C33.41623216 132.05447047 34.83308191 132.09300508 36.25 132.125 C37.43335937 132.15980469 37.43335937 132.15980469 38.640625 132.1953125 C41.20731941 131.9828378 42.7916067 131.28654105 45 130 C45 130.66 45 131.32 45 132 C46.299375 132.12375 47.59875 132.2475 48.9375 132.375 C51.15234375 132.5859375 51.15234375 132.5859375 53 133 C53.33 133.66 53.66 134.32 54 135 C56.32506659 135.39156228 56.32506659 135.39156228 59 135.5 C61.75 135.65625 61.75 135.65625 64 136 C64.495 136.99 64.495 136.99 65 138 C69.29 138 73.58 138 78 138 C78 136.35 78 134.7 78 133 C77.01 133 76.02 133 75 133 C75 132.34 75 131.68 75 131 C74.195625 130.87625 73.39125 130.7525 72.5625 130.625 C71.716875 130.41875 70.87125 130.2125 70 130 C69.505 129.01 69.505 129.01 69 128 C66.36 128 63.72 128 61 128 C61 126.02 61 124.04 61 122 C60.01 122 59.02 122 58 122 C58 121.34 58 120.68 58 120 C57.01 120 56.02 120 55 120 C55 119.01 55 118.02 55 117 C52.69 117 50.38 117 48 117 Z M-2 153 C-2 154.32 -2 155.64 -2 157 C-1.34 157 -0.68 157 0 157 C0 155.68 0 154.36 0 153 C-0.66 153 -1.32 153 -2 153 Z M21 153 C22 155 22 155 22 155 Z " fill="#92C03E" transform="translate(77,0)"/>
<path d="M0 0 C1.65 0 3.3 0 5 0 C5 0.66 5 1.32 5 2 C5.94875 1.95875 6.8975 1.9175 7.875 1.875 C11 2 11 2 13 4 C13.125 7.625 13.125 7.625 13 11 C14.3303125 10.938125 14.3303125 10.938125 15.6875 10.875 C19.00286843 11.00010824 21.06955198 11.49291245 24 13 C25.62841701 16.25683403 25.26795577 19.79958335 25.3125 23.375 C25.35600586 24.52742188 25.35600586 24.52742188 25.40039062 25.703125 C25.46414725 31.37256001 25.46414725 31.37256001 23.16796875 34.4765625 C21 36 21 36 18 37 C17.505 37.680625 17.01 38.36125 16.5 39.0625 C16.005 39.701875 15.51 40.34125 15 41 C14.01 41 13.02 41 12 41 C12 42.32 12 43.64 12 45 C12.66 45 13.32 45 14 45 C14.598125 45.61875 15.19625 46.2375 15.8125 46.875 C17.85532974 49.13465888 17.85532974 49.13465888 20.5625 50 C23.49843005 51.20448412 24.55218659 52.18480725 26 55 C25.6875 57.75 25.6875 57.75 25 60 C20.50383693 61.75460022 16.82634558 62.44688385 12 62 C11.37351562 61.51144531 10.74703125 61.02289063 10.1015625 60.51953125 C7.59353128 58.70610347 6.06032045 58.55227466 3 58.375 C-0.13712459 58.17414751 -2.96778345 57.8286803 -6 57 C-7.9896995 56.60986284 -9.99019869 56.26797351 -12 56 C-12.33 56.33 -12.66 56.66 -13 57 C-14.51928038 57.07179964 -16.04167482 57.08392007 -17.5625 57.0625 C-18.38878906 57.05347656 -19.21507812 57.04445312 -20.06640625 57.03515625 C-20.70449219 57.02355469 -21.34257813 57.01195312 -22 57 C-22 56.67 -22 56.34 -22 56 C-20.02 56 -18.04 56 -16 56 C-16 55.34 -16 54.68 -16 54 C-18.97 54 -21.94 54 -25 54 C-27.19797403 58.39594806 -27.10073202 59.99267976 -26.625 64.75 C-26.51414062 65.92046875 -26.40328125 67.0909375 -26.2890625 68.296875 C-26.19367188 69.18890625 -26.09828125 70.0809375 -26 71 C-27.485 70.505 -27.485 70.505 -29 70 C-28.34 70 -27.68 70 -27 70 C-27 68.68 -27 67.36 -27 66 C-27.99 66 -28.98 66 -30 66 C-30 64.02 -30 62.04 -30 60 C-31.65 59.67 -33.3 59.34 -35 59 C-35 58.34 -35 57.68 -35 57 C-34.34 57 -33.68 57 -33 57 C-33 56.01 -33 55.02 -33 54 C-33.804375 54.185625 -34.60875 54.37125 -35.4375 54.5625 C-36.283125 54.706875 -37.12875 54.85125 -38 55 C-39 54 -39 54 -39.0625 50.9375 C-39.0315625 49.4834375 -39.0315625 49.4834375 -39 48 C-38.01 48 -37.02 48 -36 48 C-36 47.236875 -36 46.47375 -36 45.6875 C-36 43.125 -36 40.5625 -36 38 C-36.66 38 -37.32 38 -38 38 C-38 38.66 -38 39.32 -38 40 C-40.475 40.495 -40.475 40.495 -43 41 C-43 41.66 -43 42.32 -43 43 C-44.98 43 -46.96 43 -49 43 C-49 42.34 -49 41.68 -49 41 C-49.99 40.67 -50.98 40.34 -52 40 C-52 38.35 -52 36.7 -52 35 C-52.99 35 -53.98 35 -55 35 C-55 31.37 -55 27.74 -55 24 C-54.01 23.67 -53.02 23.34 -52 23 C-52 21.02 -52 19.04 -52 17 C-51.01 17 -50.02 17 -49 17 C-49 16.34 -49 15.68 -49 15 C-48.01 15 -47.02 15 -46 15 C-45.67 17.64 -45.34 20.28 -45 23 C-44.34 23 -43.68 23 -43 23 C-43 23.99 -43 24.98 -43 26 C-42.34 26 -41.68 26 -41 26 C-40.67 25.01 -40.34 24.02 -40 23 C-38.68 23 -37.36 23 -36 23 C-35.67 22.01 -35.34 21.02 -35 20 C-32.03 20 -29.06 20 -26 20 C-25.67 21.98 -25.34 23.96 -25 26 C-24.01 26 -23.02 26 -22 26 C-22 25.01 -22 24.02 -22 23 C-19.69 23 -17.38 23 -15 23 C-15 23.99 -15 24.98 -15 26 C-13.68 26 -12.36 26 -11 26 C-11 25.01 -11 24.02 -11 23 C-8.69 23 -6.38 23 -4 23 C-4 23.99 -4 24.98 -4 26 C-3.01 26 -2.02 26 -1 26 C-1 26.66 -1 27.32 -1 28 C0.65 28 2.3 28 4 28 C4 29.98 4 31.96 4 34 C4.99 34 5.98 34 7 34 C7 34.99 7 35.98 7 37 C7.99 37 8.98 37 10 37 C10 37.66 10 38.32 10 39 C11.32 39 12.64 39 14 39 C14.33 37.68 14.66 36.36 15 35 C16.65 34.67 18.3 34.34 20 34 C20 33.01 20 32.02 20 31 C20.99 31 21.98 31 23 31 C23 29.35 23 27.7 23 26 C22.01 26 21.02 26 20 26 C20.495 24.515 20.495 24.515 21 23 C21.66 23 22.32 23 23 23 C23 20.36 23 17.72 23 15 C22.01 15 21.02 15 20 15 C20 14.34 20 13.68 20 13 C17.36 13 14.72 13 12 13 C11.505 9.04 11.505 9.04 11 5 C8.36 5 5.72 5 3 5 C3 4.01 3 3.02 3 2 C2.01 1.67 1.02 1.34 0 1 C0 0.67 0 0.34 0 0 Z M-32 32 C-32 32.66 -32 33.32 -32 34 C-31.34 34 -30.68 34 -30 34 C-30 33.34 -30 32.68 -30 32 C-30.66 32 -31.32 32 -32 32 Z M-26 32 C-26 32.66 -26 33.32 -26 34 C-25.34 34 -24.68 34 -24 34 C-24 33.34 -24 32.68 -24 32 C-24.66 32 -25.32 32 -26 32 Z M-7 38 C-7 38.99 -7 39.98 -7 41 C-9.64 41 -12.28 41 -15 41 C-15 41.66 -15 42.32 -15 43 C-16.98 43 -18.96 43 -21 43 C-21 44.98 -21 46.96 -21 49 C-21.66 49 -22.32 49 -23 49 C-23 50.32 -23 51.64 -23 53 C-21.58376784 53.05447047 -20.16691809 53.09300508 -18.75 53.125 C-17.56664062 53.15980469 -17.56664062 53.15980469 -16.359375 53.1953125 C-13.79268059 52.9828378 -12.2083933 52.28654105 -10 51 C-10 51.66 -10 52.32 -10 53 C-8.700625 53.12375 -7.40125 53.2475 -6.0625 53.375 C-3.84765625 53.5859375 -3.84765625 53.5859375 -2 54 C-1.67 54.66 -1.34 55.32 -1 56 C1.32506659 56.39156228 1.32506659 56.39156228 4 56.5 C6.75 56.65625 6.75 56.65625 9 57 C9.495 57.99 9.495 57.99 10 59 C14.29 59 18.58 59 23 59 C23 57.35 23 55.7 23 54 C22.01 54 21.02 54 20 54 C20 53.34 20 52.68 20 52 C19.195625 51.87625 18.39125 51.7525 17.5625 51.625 C16.716875 51.41875 15.87125 51.2125 15 51 C14.505 50.01 14.505 50.01 14 49 C11.36 49 8.72 49 6 49 C6 47.02 6 45.04 6 43 C5.01 43 4.02 43 3 43 C3 42.34 3 41.68 3 41 C2.01 41 1.02 41 0 41 C0 40.01 0 39.02 0 38 C-2.31 38 -4.62 38 -7 38 Z " fill="#93BF49" transform="translate(132,79)"/>
<path d="M0 0 C1.65 0 3.3 0 5 0 C5 0.66 5 1.32 5 2 C6.423125 1.938125 6.423125 1.938125 7.875 1.875 C11 2 11 2 13 4 C13.125 7.625 13.125 7.625 13 11 C14.3303125 10.938125 14.3303125 10.938125 15.6875 10.875 C19.00286843 11.00010824 21.06955198 11.49291245 24 13 C25.62841701 16.25683403 25.26795577 19.79958335 25.3125 23.375 C25.34150391 24.14328125 25.37050781 24.9115625 25.40039062 25.703125 C25.46414725 31.37256001 25.46414725 31.37256001 23.16796875 34.4765625 C21 36 21 36 18 37 C17.505 37.680625 17.01 38.36125 16.5 39.0625 C16.005 39.701875 15.51 40.34125 15 41 C14.01 41 13.02 41 12 41 C12 42.32 12 43.64 12 45 C12.66 45 13.32 45 14 45 C14.598125 45.61875 15.19625 46.2375 15.8125 46.875 C17.85532974 49.13465888 17.85532974 49.13465888 20.5625 50 C23.49843005 51.20448412 24.55218659 52.18480725 26 55 C25.6875 57.75 25.6875 57.75 25 60 C20.50383693 61.75460022 16.82634558 62.44688385 12 62 C11.37351563 61.51144531 10.74703125 61.02289063 10.1015625 60.51953125 C7.59353128 58.70610347 6.06032045 58.55227466 3 58.375 C-0.13712459 58.17414751 -2.96778345 57.8286803 -6 57 C-7.9896995 56.60986284 -9.99019869 56.26797351 -12 56 C-12.495 56.495 -12.495 56.495 -13 57 C-14.51928038 57.07179964 -16.04167482 57.08392007 -17.5625 57.0625 C-18.38878906 57.05347656 -19.21507813 57.04445312 -20.06640625 57.03515625 C-20.70449219 57.02355469 -21.34257813 57.01195312 -22 57 C-22 56.67 -22 56.34 -22 56 C-20.02 56 -18.04 56 -16 56 C-16 55.34 -16 54.68 -16 54 C-18.64 54 -21.28 54 -24 54 C-24.75 51.75 -24.75 51.75 -25 49 C-23.0625 46.6875 -23.0625 46.6875 -21 45 C-21 46.32 -21 47.64 -21 49 C-21.66 49 -22.32 49 -23 49 C-23 50.32 -23 51.64 -23 53 C-21.58297487 52.85769192 -20.1663904 52.71099254 -18.75 52.5625 C-17.96109375 52.48128906 -17.1721875 52.40007812 -16.359375 52.31640625 C-14.17635361 52.02365007 -12.1226818 51.57935581 -10 51 C-10 51.66 -10 52.32 -10 53 C-7.36 53 -4.72 53 -2 53 C-1.67 53.99 -1.34 54.98 -1 56 C2.3 56 5.6 56 9 56 C9.33 56.99 9.66 57.98 10 59 C14.29 59 18.58 59 23 59 C23 57.35 23 55.7 23 54 C22.01 54 21.02 54 20 54 C20 53.34 20 52.68 20 52 C18.35 52 16.7 52 15 52 C14.67 51.01 14.34 50.02 14 49 C11.36 49 8.72 49 6 49 C6 47.02 6 45.04 6 43 C5.01 43 4.02 43 3 43 C3 42.34 3 41.68 3 41 C2.01 41 1.02 41 0 41 C0 40.01 0 39.02 0 38 C-2.31 38 -4.62 38 -7 38 C-7 38.99 -7 39.98 -7 41 C-9.64 41 -12.28 41 -15 41 C-15 41.66 -15 42.32 -15 43 C-16.65 43 -18.3 43 -20 43 C-19 40 -19 40 -17.25 38.8125 C-14.70513012 37.89351921 -12.68406846 38 -10 38 C-9.34 37.34 -8.68 36.68 -8 36 C0.20588235 35.47058824 0.20588235 35.47058824 4 38 C4 36.68 4 35.36 4 34 C4.99 34 5.98 34 7 34 C7 34.99 7 35.98 7 37 C7.99 37 8.98 37 10 37 C10 37.66 10 38.32 10 39 C11.32 39 12.64 39 14 39 C14.33 37.68 14.66 36.36 15 35 C17.475 34.505 17.475 34.505 20 34 C20 33.01 20 32.02 20 31 C20.99 31 21.98 31 23 31 C23 29.35 23 27.7 23 26 C22.01 26 21.02 26 20 26 C20.495 24.515 20.495 24.515 21 23 C21.66 23 22.32 23 23 23 C23 20.36 23 17.72 23 15 C22.01 15 21.02 15 20 15 C20 14.34 20 13.68 20 13 C17.36 13 14.72 13 12 13 C11.505 9.04 11.505 9.04 11 5 C8.36 5 5.72 5 3 5 C3 4.01 3 3.02 3 2 C2.01 1.67 1.02 1.34 0 1 C0 0.67 0 0.34 0 0 Z " fill="#96BB60" transform="translate(132,79)"/>
<path d="M0 0 C1.65 0 3.3 0 5 0 C5 0.99 5 1.98 5 3 C10.61 3 16.22 3 22 3 C22 3.99 22 4.98 22 6 C22.78375 5.95875 23.5675 5.9175 24.375 5.875 C27 6 27 6 29 8 C31.32275177 8.40047444 33.65739357 8.7397104 36 9 C36 9.66 36 10.32 36 11 C36.99 11.33 37.98 11.66 39 12 C39 12.66 39 13.32 39 14 C39.66 14 40.32 14 41 14 C41 14.99 41 15.98 41 17 C42.98 17 44.96 17 47 17 C47 17.99 47 18.98 47 20 C48.65 20 50.3 20 52 20 C52 21.65 52 23.3 52 25 C52.99 25 53.98 25 55 25 C55 25.99 55 26.98 55 28 C55.66 28 56.32 28 57 28 C57 27.01 57 26.02 57 25 C58.98 25.33 60.96 25.66 63 26 C63.495 28.97 63.495 28.97 64 32 C62.02 32 60.04 32 58 32 C58 31.01 58 30.02 58 29 C57.01 29.33 56.02 29.66 55 30 C54.360625 29.835 53.72125 29.67 53.0625 29.5 C50.68227266 28.92297519 49.30293321 29.25977147 47 30 C47 29.34 47 28.68 47 28 C46.34 28 45.68 28 45 28 C45 26.35 45 24.7 45 23 C43.35 23 41.7 23 40 23 C38.90341064 19.71023192 39.20046862 18.28696233 40 15 C38.87851563 14.74476562 38.87851563 14.74476562 37.734375 14.484375 C36.74953125 14.24203125 35.7646875 13.9996875 34.75 13.75 C33.28820312 13.40195312 33.28820312 13.40195312 31.796875 13.046875 C28.65887511 11.87231638 27.31556075 10.3584415 25 8 C22.9999939 7.34721202 22.9999939 7.34721202 20.875 7.3125 C20.09640625 7.25578125 19.3178125 7.1990625 18.515625 7.140625 C17.27039063 7.07101562 17.27039063 7.07101562 16 7 C14.20746189 6.8653006 12.41571566 6.71958032 10.625 6.5625 C9.81289062 6.50191406 9.00078125 6.44132813 8.1640625 6.37890625 C6 6 6 6 3 4 C3 3.01 3 2.02 3 1 C2.01 0.67 1.02 0.34 0 0 Z M47 26 C47 26.66 47 27.32 47 28 C47.66 28 48.32 28 49 28 C49 27.34 49 26.68 49 26 C48.34 26 47.68 26 47 26 Z " fill="#95B764" transform="translate(106,2)"/>
<path d="M0 0 C2.97 0.495 2.97 0.495 6 1 C6 1.66 6 2.32 6 3 C6.99 3 7.98 3 9 3 C9 5.97 9 8.94 9 12 C8.01 12 7.02 12 6 12 C6 12.99 6 13.98 6 15 C4.02 15 2.04 15 0 15 C0 14.34 0 13.68 0 13 C-0.66 13 -1.32 13 -2 13 C-2 14.32 -2 15.64 -2 17 C-1.01 17.33 -0.02 17.66 1 18 C1 20.31 1 22.62 1 25 C1.66 25 2.32 25 3 25 C3.38133299 26.9914056 3.71325582 28.99279077 4 31 C3 32 3 32 -0.81640625 32.09765625 C-2.39846682 32.09098089 -3.98051159 32.07901875 -5.5625 32.0625 C-6.36880859 32.05798828 -7.17511719 32.05347656 -8.00585938 32.04882812 C-10.00393756 32.03700518 -12.00197783 32.01906914 -14 32 C-14 31.01 -14 30.02 -14 29 C-15.98 29 -17.96 29 -20 29 C-20 28.67 -20 28.34 -20 28 C-17.69 28 -15.38 28 -13 28 C-13 28.66 -13 29.32 -13 30 C-9.7 30 -6.4 30 -3 30 C-3 24.06 -3 18.12 -3 12 C-3.66 11.67 -4.32 11.34 -5 11 C-4.34 11 -3.68 11 -3 11 C-3 8.36 -3 5.72 -3 3 C-2.01 3 -1.02 3 0 3 C0 2.01 0 1.02 0 0 Z " fill="#9BB75B" transform="translate(69,74)"/>
<path d="M0 0 C0.99 0.33 1.98 0.66 3 1 C3 1.66 3 2.32 3 3 C3.66 3 4.32 3 5 3 C5 2.34 5 1.68 5 1 C5.99 1 6.98 1 8 1 C8 2.65 8 4.3 8 6 C8.99 6.33 9.98 6.66 11 7 C11 8.98 11 10.96 11 13 C10.01 13 9.02 13 8 13 C8 14.32 8 15.64 8 17 C10.64 17 13.28 17 16 17 C16 20.3 16 23.6 16 27 C14.35 27 12.7 27 11 27 C10.67 26.01 10.34 25.02 10 24 C9.01 23.67 8.02 23.34 7 23 C5.9838308 18.37078475 6.16203269 14.65537393 7 10 C5.35 10.66 3.7 11.32 2 12 C2 11.34 2 10.68 2 10 C0.02 10 -1.96 10 -4 10 C-3.67 9.01 -3.34 8.02 -3 7 C-3 7.66 -3 8.32 -3 9 C-1.35 9 0.3 9 2 9 C2 7.35 2 5.7 2 4 C0.35 4.66 -1.3 5.32 -3 6 C-3 5.01 -3 4.02 -3 3 C-3.99 3 -4.98 3 -6 3 C-6 2.34 -6 1.68 -6 1 C-4.35 1 -2.7 1 -1 1 C-1 1.66 -1 2.32 -1 3 C-0.34 3 0.32 3 1 3 C0.67 2.01 0.34 1.02 0 0 Z M5 7 C5 7.66 5 8.32 5 9 C5.66 9 6.32 9 7 9 C7 8.34 7 7.68 7 7 C6.34 7 5.68 7 5 7 Z " fill="#94BD5B" transform="translate(164,35)"/>
<path d="M0 0 C4.62 0 9.24 0 14 0 C14.33 0.66 14.66 1.32 15 2 C16.65 2 18.3 2 20 2 C20.33 3.32 20.66 4.64 21 6 C22.32 6.33 23.64 6.66 25 7 C25.33 8.32 25.66 9.64 26 11 C27.65 11 29.3 11 31 11 C31.226875 11.639375 31.45375 12.27875 31.6875 12.9375 C32.83432027 15.2275089 32.83432027 15.2275089 35.375 15.75 C38.224184 16.06320606 38.224184 16.06320606 42 16 C42 16.99 42 17.98 42 19 C44.97 18.34 47.94 17.68 51 17 C51.66 18.32 52.32 19.64 53 21 C53.94875 20.79375 54.8975 20.5875 55.875 20.375 C57.421875 20.189375 57.421875 20.189375 59 20 C61 22 61 22 61 25 C62.32 25.33 63.64 25.66 65 26 C63.35 26 61.7 26 60 26 C60 25.01 60 24.02 60 23 C57.03 23 54.06 23 51 23 C51 22.34 51 21.68 51 21 C49.68 21 48.36 21 47 21 C47 21.66 47 22.32 47 23 C45.68 23 44.36 23 43 23 C43 22.34 43 21.68 43 21 C40.36 20.67 37.72 20.34 35 20 C35 19.34 35 18.68 35 18 C33.02 18 31.04 18 29 18 C29 16.02 29 14.04 29 12 C27.35 12 25.7 12 24 12 C24 11.01 24 10.02 24 9 C23.01 9 22.02 9 21 9 C21 8.34 21 7.68 21 7 C20.01 7 19.02 7 18 7 C18 6.01 18 5.02 18 4 C16.35 4 14.7 4 13 4 C13 3.01 13 2.02 13 1 C8.71 1 4.42 1 0 1 C0 0.67 0 0.34 0 0 Z " fill="#99B468" transform="translate(67,52)"/>
<path d="M0 0 C2 2 2 2 2.125 4.625 C2.08375 5.40875 2.0425 6.1925 2 7 C2.66 7 3.32 7 4 7 C4 8.98 4 10.96 4 13 C5.98 13 7.96 13 10 13 C10 13.99 10 14.98 10 16 C10.66 16 11.32 16 12 16 C12 17.98 12 19.96 12 22 C11.01 22 10.02 22 9 22 C9 21.34 9 20.68 9 20 C8.34 20 7.68 20 7 20 C7 26.6 7 33.2 7 40 C8.65 40 10.3 40 12 40 C12 40.99 12 41.98 12 43 C9.1875 43.3125 9.1875 43.3125 6 43 C4.0625 40.75 4.0625 40.75 3 38 C3.25 35.9375 3.25 35.9375 4 34 C4.185625 33.2575 4.37125 32.515 4.5625 31.75 C4.706875 31.1725 4.85125 30.595 5 30 C4.34 30 3.68 30 3 30 C3.66 26.37 4.32 22.74 5 19 C5.66 19 6.32 19 7 19 C6.24849977 15.72226496 6.24849977 15.72226496 3 14 C0.39571641 9.08079765 -0.3464451 5.65860333 0 0 Z " fill="#99B56A" transform="translate(168,53)"/>
<path d="M0 0 C0.8125 1.6875 0.8125 1.6875 1 4 C-0.875 6.6875 -0.875 6.6875 -4 9 C-6.25095977 9.39055832 -8.44219021 9.50346572 -10.72265625 9.62109375 C-14.00071953 10.16650051 -15.93181005 11.79488629 -18.39453125 13.94140625 C-20 15 -20 15 -24 15 C-24 15.66 -24 16.32 -24 17 C-24.969375 17.2475 -25.93875 17.495 -26.9375 17.75 C-27.948125 18.1625 -28.95875 18.575 -30 19 C-30.74276031 20.97080157 -30.74276031 20.97080157 -31 23 C-34 25 -34 25 -37 25 C-37 26.65 -37 28.3 -37 30 C-37.66 30 -38.32 30 -39 30 C-39 28.35 -39 26.7 -39 25 C-38.01 24.67 -37.02 24.34 -36 24 C-36 23.34 -36 22.68 -36 22 C-35.01 22 -34.02 22 -33 22 C-33 19.03 -33 16.06 -33 13 C-31.02 13 -29.04 13 -27 13 C-27 13.99 -27 14.98 -27 16 C-26.34 16 -25.68 16 -25 16 C-25 15.01 -25 14.02 -25 13 C-24.01 13 -23.02 13 -22 13 C-22 12.34 -22 11.68 -22 11 C-20.35 10.67 -18.7 10.34 -17 10 C-17 9.34 -17 8.68 -17 8 C-13.37 8 -9.74 8 -6 8 C-6 7.01 -6 6.02 -6 5 C-5.01 5 -4.02 5 -3 5 C-2.67 4.01 -2.34 3.02 -2 2 C-1.34 2 -0.68 2 0 2 C0 1.34 0 0.68 0 0 Z " fill="#9BB74A" transform="translate(77,0)"/>
<path d="M0 0 C1.32 0 2.64 0 4 0 C4 0.66 4 1.32 4 2 C3.34 2 2.68 2 2 2 C2 4.31 2 6.62 2 9 C1.01 9.33 0.02 9.66 -1 10 C-1 11.65 -1 13.3 -1 15 C-1.99 15 -2.98 15 -4 15 C-4 16.98 -4 18.96 -4 21 C-4.66 21 -5.32 21 -6 21 C-6 22.65 -6 24.3 -6 26 C-6.99 26.33 -7.98 26.66 -9 27 C-9.33 28.65 -9.66 30.3 -10 32 C-10.66 32 -11.32 32 -12 32 C-12 32.99 -12 33.98 -12 35 C-13.98 35 -15.96 35 -18 35 C-18 35.99 -18 36.98 -18 38 C-18.66 38 -19.32 38 -20 38 C-19.9375 36.25 -19.9375 36.25 -19 34 C-16.75835678 32.40498463 -14.46433357 31.25456982 -12 30 C-12 28.35 -12 26.7 -12 25 C-10.68 25 -9.36 25 -8 25 C-8.226875 24.319375 -8.45375 23.63875 -8.6875 22.9375 C-9.1234146 18.83990275 -7.93136275 16.60521046 -6 13 C-3.375 10.1875 -3.375 10.1875 -1 8 C0.35439668 5.29120665 0.06501451 2.99066732 0 0 Z " fill="#9AB56A" transform="translate(176,118)"/>
<path d="M0 0 C1.32 0 2.64 0 4 0 C4 0.66 4 1.32 4 2 C3.01 2 2.02 2 1 2 C1 2.99 1 3.98 1 5 C0.01 5 -0.98 5 -2 5 C-2 5.99 -2 6.98 -2 8 C-4.64 8 -7.28 8 -10 8 C-10 8.99 -10 9.98 -10 11 C-10.99 11 -11.98 11 -13 11 C-13.33 11.99 -13.66 12.98 -14 14 C-17.6441774 16.4294516 -19.71241272 16.16179575 -24 16 C-24 16.99 -24 17.98 -24 19 C-25.98 19 -27.96 19 -30 19 C-30 19.99 -30 20.98 -30 22 C-32.64 22 -35.28 22 -38 22 C-38 22.66 -38 23.32 -38 24 C-38.99 24 -39.98 24 -41 24 C-40.4375 22.125 -40.4375 22.125 -39 20 C-35.4375 18.8125 -35.4375 18.8125 -32 18 C-31.67 17.67 -31.34 17.34 -31 17 C-29.33382885 16.95936168 -27.66611905 16.957279 -26 17 C-26 16.01 -26 15.02 -26 14 C-22.04 13.34 -18.08 12.68 -14 12 C-14 11.01 -14 10.02 -14 9 C-10.91111478 6.94074319 -10.29064073 6.7609626 -6.8125 6.875 C-4.9253125 6.936875 -4.9253125 6.936875 -3 7 C-2.814375 6.1028125 -2.814375 6.1028125 -2.625 5.1875 C-2 3 -2 3 0 0 Z " fill="#99B767" transform="translate(152,156)"/>
<path d="M0 0 C3.96 0 7.92 0 12 0 C12 0.33 12 0.66 12 1 C9.36 1.33 6.72 1.66 4 2 C3.814375 3.299375 3.62875 4.59875 3.4375 5.9375 C3.33308594 6.66839844 3.22867188 7.39929688 3.12109375 8.15234375 C3.08113281 8.76207031 3.04117188 9.37179688 3 10 C3.33 10.33 3.66 10.66 4 11 C4.20363645 14.33737521 4.3465013 17.66746299 4.4296875 21.00976562 C4.62075921 25.36062772 5.14467926 27.72477915 8 31 C8 31.99 8 32.98 8 34 C7.01 34 6.02 34 5 34 C5 32.35 5 30.7 5 29 C4.01 29 3.02 29 2 29 C-0.10428384 23.87080814 -0.21755666 19.4389165 0 14 C0.66 14 1.32 14 2 14 C2 13.34 2 12.68 2 12 C1.34 12 0.68 12 0 12 C0 8.04 0 4.08 0 0 Z " fill="#9AB468" transform="translate(91,146)"/>
<path d="M0 0 C0.99 0.33 1.98 0.66 3 1 C2.5030825 5.64070415 0.6752854 8.04659541 -2.3125 11.5625 C-3.09238281 12.49191406 -3.87226563 13.42132813 -4.67578125 14.37890625 C-8.96802646 19.21940463 -8.96802646 19.21940463 -11 21 C-11.99 21 -12.98 21 -14 21 C-14 20.01 -14 19.02 -14 18 C-13.01 18 -12.02 18 -11 18 C-11 16.35 -11 14.7 -11 13 C-10.34 13 -9.68 13 -9 13 C-8.67 12.01 -8.34 11.02 -8 10 C-7.34 10 -6.68 10 -6 10 C-6 9.01 -6 8.02 -6 7 C-5.01 7 -4.02 7 -3 7 C-3 5.35 -3 3.7 -3 2 C-2.01 2 -1.02 2 0 2 C0 1.34 0 0.68 0 0 Z " fill="#99BC38" transform="translate(33,31)"/>
<path d="M0 0 C0.33 0 0.66 0 1 0 C1 1.65 1 3.3 1 5 C2.65 5 4.3 5 6 5 C6.87890625 11.15234375 6.87890625 11.15234375 7 13 C6 14 6 14 3.4375 14.0625 C2.633125 14.041875 1.82875 14.02125 1 14 C1 14.66 1 15.32 1 16 C1.99 16.33 2.98 16.66 4 17 C4 17.66 4 18.32 4 19 C3.01 19 2.02 19 1 19 C1 21.97 1 24.94 1 28 C-1.64 28 -4.28 28 -7 28 C-7 28.66 -7 29.32 -7 30 C-9.31 30.33 -11.62 30.66 -14 31 C-14 30.01 -14 29.02 -14 28 C-12.35 28.33 -10.7 28.66 -9 29 C-9 28.34 -9 27.68 -9 27 C-6.03 27 -3.06 27 0 27 C0 22.05 0 17.1 0 12 C1.65 12 3.3 12 5 12 C5 10.02 5 8.04 5 6 C3.68 6 2.36 6 1 6 C1 7.65 1 9.3 1 11 C-0.98 11.99 -0.98 11.99 -3 13 C-3 10.69 -3 8.38 -3 6 C-2.01 5.67 -1.02 5.34 0 5 C0 3.35 0 1.7 0 0 Z M-2 6 C-2 7.32 -2 8.64 -2 10 C-1.34 10 -0.68 10 0 10 C0 8.68 0 7.36 0 6 C-0.66 6 -1.32 6 -2 6 Z " fill="#9EB369" transform="translate(77,147)"/>
<path d="M0 0 C0.66 0.33 1.32 0.66 2 1 C1.0409375 2.1446875 1.0409375 2.1446875 0.0625 3.3125 C-2.14232781 5.88246713 -2.14232781 5.88246713 -3 9 C-3.66 9 -4.32 9 -5 9 C-3.91215032 12.24983135 -3.91215032 12.24983135 -2 15 C-1.84019563 17.44608998 -1.74070553 19.86731058 -1.68359375 22.31640625 C-1.66281265 23.04746078 -1.64203156 23.77851532 -1.62062073 24.53172302 C-1.55504976 26.87521656 -1.49620568 29.21882539 -1.4375 31.5625 C-1.39432192 33.14779855 -1.35070787 34.73308529 -1.30664062 36.31835938 C-1.1993608 40.21212037 -1.0981151 44.10599772 -1 48 C-1.66 48 -2.32 48 -3 48 C-3.96465491 40.77648171 -4.11956114 33.71937932 -4.0625 26.4375 C-4.05798828 25.33341797 -4.05347656 24.22933594 -4.04882812 23.09179688 C-4.0371514 20.394473 -4.02077525 17.69726653 -4 15 C-4.66 15 -5.32 15 -6 15 C-6 12.69 -6 10.38 -6 8 C-5.34 8 -4.68 8 -4 8 C-3.896875 7.05125 -3.79375 6.1025 -3.6875 5.125 C-3 2 -3 2 0 0 Z " fill="#9DB64D" transform="translate(14,58)"/>
<path d="M0 0 C0.33 0 0.66 0 1 0 C1 1.98 1 3.96 1 6 C0.34 6 -0.32 6 -1 6 C-1 6.99 -1 7.98 -1 9 C0.65 9 2.3 9 4 9 C7.64079463 15.43520528 9.64134677 20.58783319 10 28 C9.01 27.67 8.02 27.34 7 27 C7.66 27 8.32 27 9 27 C9 25.68 9 24.36 9 23 C8.01 23 7.02 23 6 23 C6 21.02 6 19.04 6 17 C4.35 16.67 2.7 16.34 1 16 C1 15.34 1 14.68 1 14 C1.66 14 2.32 14 3 14 C3 13.01 3 12.02 3 11 C1.7934375 11.2784375 1.7934375 11.2784375 0.5625 11.5625 C-0.283125 11.706875 -1.12875 11.85125 -2 12 C-3 11 -3 11 -3.0625 7.9375 C-3.041875 6.968125 -3.02125 5.99875 -3 5 C-2.01 5 -1.02 5 0 5 C0 3.35 0 1.7 0 0 Z " fill="#9EB76A" transform="translate(96,122)"/>
<path d="M0 0 C1.0625 1.8125 1.0625 1.8125 2 4 C1.67 4.99 1.34 5.98 1 7 C-0.175625 7.12375 -0.175625 7.12375 -1.375 7.25 C-4.14749104 7.72806339 -4.14749104 7.72806339 -5.3125 10.0625 C-5.539375 10.701875 -5.76625 11.34125 -6 12 C-6.99 11.34 -7.98 10.68 -9 10 C-9 9.34 -9 8.68 -9 8 C-9.99 8.33 -10.98 8.66 -12 9 C-12.04254356 7.00045254 -12.04080783 4.99958364 -12 3 C-11 2 -11 2 -9.15234375 1.90234375 C-7.1015625 1.93489583 -5.05078125 1.96744792 -3 2 C-3 2.99 -3 3.98 -3 5 C-2.01 5 -1.02 5 0 5 C0 3.35 0 1.7 0 0 Z M-8 8 C-7 10 -7 10 -7 10 Z " fill="#93BF4F" transform="translate(106,145)"/>
<path d="M0 0 C2.31 0 4.62 0 7 0 C7 0.99 7 1.98 7 3 C8.32 3 9.64 3 11 3 C11 2.01 11 1.02 11 0 C13.31 0 15.62 0 18 0 C18 0.99 18 1.98 18 3 C18.99 3 19.98 3 21 3 C21 3.66 21 4.32 21 5 C22.65 5 24.3 5 26 5 C25.67 5.99 25.34 6.98 25 8 C21.5625 6.75 21.5625 6.75 18 5 C17.0625 2.8125 17.0625 2.8125 17 1 C16.01 1 15.02 1 14 1 C13.67 1.99 13.34 2.98 13 4 C10.69 4 8.38 4 6 4 C5.67 3.01 5.34 2.02 5 1 C3.68 1 2.36 1 1 1 C0.87625 1.928125 0.7525 2.85625 0.625 3.8125 C0 7 0 7 -2 10 C-2.66 9.67 -3.32 9.34 -4 9 C-3.67 7.02 -3.34 5.04 -3 3 C-2.01 3 -1.02 3 0 3 C0 2.01 0 1.02 0 0 Z " fill="#97B966" transform="translate(110,102)"/>
<path d="M0 0 C0.66 0.66 1.32 1.32 2 2 C1.67582137 5.80909895 1.14418558 7.78372163 -1 11 C-1.39013716 12.9896995 -1.73202649 14.99019869 -2 17 C-1.01 17.33 -0.02 17.66 1 18 C2.1875 21.0625 2.1875 21.0625 3 24 C2.34 24 1.68 24 1 24 C0.67 22.35 0.34 20.7 0 19 C-0.99 19 -1.98 19 -3 19 C-3 18.01 -3 17.02 -3 16 C-3.66 16 -4.32 16 -5 16 C-5 13.03 -5 10.06 -5 7 C-4.34 7 -3.68 7 -3 7 C-2.67 6.01 -2.34 5.02 -2 4 C-1.34 4 -0.68 4 0 4 C0 2.68 0 1.36 0 0 Z " fill="#A0B158" transform="translate(13,106)"/>
<path d="M0 0 C1.98 0.99 1.98 0.99 4 2 C4 2.66 4 3.32 4 4 C5.32 4 6.64 4 8 4 C8 3.34 8 2.68 8 2 C11.12649899 0.14725986 13.37316225 -0.37198336 17 0 C17.99 0.66 18.98 1.32 20 2 C20.33 1.34 20.66 0.68 21 0 C21.99 0.33 22.98 0.66 24 1 C24 1.99 24 2.98 24 4 C23.34 4 22.68 4 22 4 C22 4.66 22 5.32 22 6 C20.35 6 18.7 6 17 6 C16.67 4.35 16.34 2.7 16 1 C15.34 1 14.68 1 14 1 C14 1.66 14 2.32 14 3 C12.35 3.33 10.7 3.66 9 4 C9 4.66 9 5.32 9 6 C7.02 6 5.04 6 3 6 C3 5.34 3 4.68 3 4 C2.01 3.67 1.02 3.34 0 3 C0 2.01 0 1.02 0 0 Z " fill="#99C258" transform="translate(80,116)"/>
<path d="M0 0 C2.97 0 5.94 0 9 0 C9 2.31 9 4.62 9 7 C8.34 7 7.68 7 7 7 C7 9.64 7 12.28 7 15 C6.01 15 5.02 15 4 15 C4 15.99 4 16.98 4 18 C3.01 17.67 2.02 17.34 1 17 C1.66 16.01 2.32 15.02 3 14 C3.66 14 4.32 14 5 14 C5 10.04 5 6.08 5 2 C3.35 2.33 1.7 2.66 0 3 C0 2.01 0 1.02 0 0 Z " fill="#97B06C" transform="translate(66,121)"/>
<path d="M0 0 C0.99 0 1.98 0 3 0 C3 1.32 3 2.64 3 4 C3.66 4 4.32 4 5 4 C5 5.65 5 7.3 5 9 C4.01 9.495 4.01 9.495 3 10 C2.34227572 13.02934491 2.34227572 13.02934491 2 16 C0.14223235 12.86501708 -0.20140476 10.62528568 0 7 C-1.98 6.34 -3.96 5.68 -6 5 C-6 4.34 -6 3.68 -6 3 C-4.35 3 -2.7 3 -1 3 C-0.67 2.01 -0.34 1.02 0 0 Z " fill="#9BC246" transform="translate(72,143)"/>
<path d="M0 0 C1.32 0 2.64 0 4 0 C4 0.66 4 1.32 4 2 C4.66 2 5.32 2 6 2 C5.45276317 5.37462715 4.9451 7.08235 3 10 C0.375 10.1875 0.375 10.1875 -2 10 C-2.25 3.375 -2.25 3.375 0 0 Z " fill="#95BF3D" transform="translate(70,77)"/>
<path d="M0 0 C3.3 0 6.6 0 10 0 C10 0.99 10 1.98 10 3 C10.66 3.33 11.32 3.66 12 4 C6.06 4 0.12 4 -6 4 C-6 4.66 -6 5.32 -6 6 C-7.98 6 -9.96 6 -12 6 C-10.68 5.67 -9.36 5.34 -8 5 C-8 4.34 -8 3.68 -8 3 C-5.36 3 -2.72 3 0 3 C0 2.01 0 1.02 0 0 Z " fill="#98B557" transform="translate(46,127)"/>
<path d="M0 0 C0.8125 1.6875 0.8125 1.6875 1 4 C-1.05469047 6.94505634 -2.66744175 8.72477282 -6.26953125 9.46875 C-7.84683251 9.61144608 -9.42878275 9.71117121 -11.01171875 9.76171875 C-13.23205744 9.82009518 -13.23205744 9.82009518 -15 12 C-18.125 12.125 -18.125 12.125 -21 12 C-21 12.66 -21 13.32 -21 14 C-22.32 13.67 -23.64 13.34 -25 13 C-24.01 13 -23.02 13 -22 13 C-22 12.34 -22 11.68 -22 11 C-20.35 10.67 -18.7 10.34 -17 10 C-17 9.34 -17 8.68 -17 8 C-13.37 8 -9.74 8 -6 8 C-6 7.01 -6 6.02 -6 5 C-5.01 5 -4.02 5 -3 5 C-2.67 4.01 -2.34 3.02 -2 2 C-1.34 2 -0.68 2 0 2 C0 1.34 0 0.68 0 0 Z " fill="#9EB261" transform="translate(77,0)"/>
<path d="M0 0 C2.01822917 0.06510417 4.03645833 0.13020833 6.0546875 0.1953125 C6.0546875 0.8553125 6.0546875 1.5153125 6.0546875 2.1953125 C3.7446875 2.1953125 1.4346875 2.1953125 -0.9453125 2.1953125 C-0.9453125 3.1853125 -0.9453125 4.1753125 -0.9453125 5.1953125 C-3.5853125 5.1953125 -6.2253125 5.1953125 -8.9453125 5.1953125 C-8.9453125 5.8553125 -8.9453125 6.5153125 -8.9453125 7.1953125 C-10.5953125 7.1953125 -12.2453125 7.1953125 -13.9453125 7.1953125 C-12.9453125 4.1953125 -12.9453125 4.1953125 -11.1953125 3.0078125 C-8.65044262 2.08883171 -6.62938096 2.1953125 -3.9453125 2.1953125 C-1.9453125 0.1953125 -1.9453125 0.1953125 0 0 Z " fill="#97B372" transform="translate(125.9453125,114.8046875)"/>
<path d="M0 0 C2.31 0.33 4.62 0.66 7 1 C6.67 1.99 6.34 2.98 6 4 C0 4 -6 4 -12 4 C-12.33 4.99 -12.66 5.98 -13 7 C-15.31 7 -17.62 7 -20 7 C-15.96891526 2.96891526 -12.36420742 2.68690041 -6.75 2.375 C-5.48671875 2.30023438 -4.2234375 2.22546875 -2.921875 2.1484375 C-1.95765625 2.09945312 -0.9934375 2.05046875 0 2 C0 1.34 0 0.68 0 0 Z " fill="#9CB460" transform="translate(60,52)"/>
<path d="M0 0 C2.97 0 5.94 0 9 0 C9 2.64 9 5.28 9 8 C8.34 6.68 7.68 5.36 7 4 C5.72125 4.185625 4.4425 4.37125 3.125 4.5625 C-0.75 5.125 -0.75 5.125 -3 4 C-3 4.66 -3 5.32 -3 6 C-3.99 6 -4.98 6 -6 6 C-5.67 5.01 -5.34 4.02 -5 3 C-3.68 3 -2.36 3 -1 3 C-0.67 2.01 -0.34 1.02 0 0 Z " fill="#9CB571" transform="translate(97,99)"/>
<path d="M0 0 C2.64 0 5.28 0 8 0 C8.33 0.99 8.66 1.98 9 3 C12.3 3 15.6 3 19 3 C19.33 3.99 19.66 4.98 20 6 C23.96 6 27.92 6 32 6 C32 6.33 32 6.66 32 7 C29.85423363 7.02685938 27.70837355 7.04633088 25.5625 7.0625 C24.36753906 7.07410156 23.17257813 7.08570313 21.94140625 7.09765625 C19 7 19 7 18 6 C16.31816052 5.76712992 14.6287584 5.58735834 12.9375 5.4375 C12.01839844 5.35371094 11.09929687 5.26992187 10.15234375 5.18359375 C9.08693359 5.09271484 9.08693359 5.09271484 8 5 C7.67 3.68 7.34 2.36 7 1 C4.69 1 2.38 1 0 1 C0 0.67 0 0.34 0 0 Z " fill="#9AB56C" transform="translate(122,132)"/>
<path d="M0 0 C0.99 0 1.98 0 3 0 C1.68021929 5.41110091 -0.93285427 9.26441506 -5 13 C-5.66 13 -6.32 13 -7 13 C-7 14.32 -7 15.64 -7 17 C-7.66 17 -8.32 17 -9 17 C-9 17.66 -9 18.32 -9 19 C-9.66 19 -10.32 19 -11 19 C-11 18.01 -11 17.02 -11 16 C-10.01 16 -9.02 16 -8 16 C-8 14.35 -8 12.7 -8 11 C-7.34 11 -6.68 11 -6 11 C-5.67 10.01 -5.34 9.02 -5 8 C-4.34 8 -3.68 8 -3 8 C-3 7.01 -3 6.02 -3 5 C-2.01 5 -1.02 5 0 5 C0 3.35 0 1.7 0 0 Z " fill="#9CB45E" transform="translate(30,33)"/>
<path d="M0 0 C0.99 0 1.98 0 3 0 C3.33 2.64 3.66 5.28 4 8 C4.66 8 5.32 8 6 8 C5.67 8.99 5.34 9.98 5 11 C3 9.6875 3 9.6875 1 8 C1 7.01 1 6.02 1 5 C-0.98 5.99 -0.98 5.99 -3 7 C-3 5.35 -3 3.7 -3 2 C-2.01 2 -1.02 2 0 2 C0 1.34 0 0.68 0 0 Z " fill="#9BB36C" transform="translate(83,94)"/>
<path d="M0 0 C0.99 0.33 1.98 0.66 3 1 C4.37001429 4.1967 3.8252404 6.69903842 3 10 C0.69 10 -1.62 10 -4 10 C-3.67 9.01 -3.34 8.02 -3 7 C-3 7.66 -3 8.32 -3 9 C-1.35 9 0.3 9 2 9 C2 7.35 2 5.7 2 4 C0.35 4.66 -1.3 5.32 -3 6 C-3 5.01 -3 4.02 -3 3 C-3.99 3 -4.98 3 -6 3 C-6 2.34 -6 1.68 -6 1 C-4.35 1 -2.7 1 -1 1 C-1 1.66 -1 2.32 -1 3 C-0.34 3 0.32 3 1 3 C0.67 2.01 0.34 1.02 0 0 Z " fill="#99B868" transform="translate(164,35)"/>
<path d="M0 0 C0.20625 0.639375 0.4125 1.27875 0.625 1.9375 C1.07875 2.618125 1.5325 3.29875 2 4 C2.99 4.144375 3.98 4.28875 5 4.4375 C5.99 4.623125 6.98 4.80875 8 5 C9.67282031 7.88941691 10 9.6591357 10 13 C10.99 13.33 11.98 13.66 13 14 C11.35 14 9.7 14 8 14 C8 12.35 8 10.7 8 9 C6.35 9 4.7 9 3 9 C3 8.01 3 7.02 3 6 C2.01 6 1.02 6 0 6 C0 4.02 0 2.04 0 0 Z " fill="#9CB25E" transform="translate(30,147)"/>
<path d="M0 0 C2.97 0.495 2.97 0.495 6 1 C6.33 2.98 6.66 4.96 7 7 C5.02 7 3.04 7 1 7 C0.67 4.69 0.34 2.38 0 0 Z " fill="#9EB876" transform="translate(163,27)"/>
<path d="M0 0 C3.375 0.5625 3.375 0.5625 7 2 C8.4375 5.625 8.4375 5.625 9 9 C9.66 9 10.32 9 11 9 C11 9.99 11 10.98 11 12 C11.66 12.33 12.32 12.66 13 13 C12.01 13 11.02 13 10 13 C10 12.34 10 11.68 10 11 C9.01 10.67 8.02 10.34 7 10 C7 8.35 7 6.7 7 5 C5.35 5 3.7 5 2 5 C2 4.01 2 3.02 2 2 C1.34 2 0.68 2 0 2 C0 1.34 0 0.68 0 0 Z " fill="#9CB44B" transform="translate(17,134)"/>
<path d="M0 0 C0.33 0.99 0.66 1.98 1 3 C-0.1875 4.5 -0.1875 4.5 -2 6 C-4.6875 6.1875 -4.6875 6.1875 -7 6 C-7.33 6.99 -7.66 7.98 -8 9 C-8.66 9 -9.32 9 -10 9 C-10.33 10.32 -10.66 11.64 -11 13 C-11 11.35 -11 9.7 -11 8 C-10.34 8 -9.68 8 -9 8 C-8.67 6.35 -8.34 4.7 -8 3 C-6.865625 2.690625 -5.73125 2.38125 -4.5625 2.0625 C-1.21224901 1.37075469 -1.21224901 1.37075469 0 0 Z " fill="#9CB753" transform="translate(44,100)"/>
<path d="M0 0 C1.65 0 3.3 0 5 0 C5 0.66 5 1.32 5 2 C5.969375 1.979375 6.93875 1.95875 7.9375 1.9375 C11 2 11 2 12 3 C12.04092937 5.33297433 12.04241723 7.66705225 12 10 C11.67 10 11.34 10 11 10 C11 8.35 11 6.7 11 5 C8.36 5 5.72 5 3 5 C3 4.01 3 3.02 3 2 C2.01 1.67 1.02 1.34 0 1 C0 0.67 0 0.34 0 0 Z " fill="#9AB36D" transform="translate(132,79)"/>
<path d="M0 0 C2.64 0 5.28 0 8 0 C8 2.31 8 4.62 8 7 C6.68 7 5.36 7 4 7 C4.33 5.68 4.66 4.36 5 3 C3.68 3.33 2.36 3.66 1 4 C0.67 2.68 0.34 1.36 0 0 Z " fill="#98C253" transform="translate(172,53)"/>
<path d="M0 0 C0.33 1.32 0.66 2.64 1 4 C0.34 4 -0.32 4 -1 4 C-1 5.32 -1 6.64 -1 8 C0.41702513 7.85769192 1.8336096 7.71099254 3.25 7.5625 C4.03890625 7.48128906 4.8278125 7.40007812 5.640625 7.31640625 C7.82364639 7.02365007 9.8773182 6.57935581 12 6 C12 6.66 12 7.32 12 8 C8.85069107 9.04976964 6.61185544 9.10131595 3.3125 9.0625 C2.31863281 9.05347656 1.32476562 9.04445312 0.30078125 9.03515625 C-0.83810547 9.01775391 -0.83810547 9.01775391 -2 9 C-2.58984375 6.64453125 -2.58984375 6.64453125 -3 4 C-1.5625 1.6875 -1.5625 1.6875 0 0 Z " fill="#9AB66C" transform="translate(110,124)"/>
<path d="M0 0 C0.33 0 0.66 0 1 0 C1 1.65 1 3.3 1 5 C2.65 5 4.3 5 6 5 C6 7.31 6 9.62 6 12 C5.67 12 5.34 12 5 12 C5 10.02 5 8.04 5 6 C3.68 6 2.36 6 1 6 C1 7.65 1 9.3 1 11 C-0.98 11.99 -0.98 11.99 -3 13 C-3 10.69 -3 8.38 -3 6 C-2.01 5.67 -1.02 5.34 0 5 C0 3.35 0 1.7 0 0 Z M-2 6 C-2 7.32 -2 8.64 -2 10 C-1.34 10 -0.68 10 0 10 C0 8.68 0 7.36 0 6 C-0.66 6 -1.32 6 -2 6 Z " fill="#98B55C" transform="translate(77,147)"/>
<path d="M0 0 C1.65 0 3.3 0 5 0 C5 0.99 5 1.98 5 3 C6.65 3 8.3 3 10 3 C10 4.65 10 6.3 10 8 C10.99 8 11.98 8 13 8 C12.67 8.99 12.34 9.98 12 11 C8.125 8.375 8.125 8.375 7 5 C6.01 5 5.02 5 4 5 C3.896875 4.360625 3.79375 3.72125 3.6875 3.0625 C3.460625 2.381875 3.23375 1.70125 3 1 C2.01 0.67 1.02 0.34 0 0 Z " fill="#9BB175" transform="translate(148,19)"/>
<path d="M0 0 C0.99 0 1.98 0 3 0 C3.33 0.66 3.66 1.32 4 2 C6.33163378 2.67258667 8.6652039 3.33847444 11 4 C13.9375 5.5 13.9375 5.5 16 7 C16 7.66 16 8.32 16 9 C14.35 9 12.7 9 11 9 C11 8.01 11 7.02 11 6 C10.01 6 9.02 6 8 6 C8 5.34 8 4.68 8 4 C6.35 4 4.7 4 3 4 C2.67 3.01 2.34 2.02 2 1 C1.34 0.67 0.68 0.34 0 0 Z " fill="#9AB361" transform="translate(47,166)"/>
<path d="M0 0 C0.66 0.66 1.32 1.32 2 2 C1.68789339 6.57756359 0.18733261 10.00574046 -2 14 C-2.33 14 -2.66 14 -3 14 C-3 11.03 -3 8.06 -3 5 C-2.01 4.67 -1.02 4.34 0 4 C0 2.68 0 1.36 0 0 Z " fill="#9DB645" transform="translate(13,106)"/>
<path d="M0 0 C0.66 0.33 1.32 0.66 2 1 C1.0409375 2.1446875 1.0409375 2.1446875 0.0625 3.3125 C-2.14232781 5.88246713 -2.14232781 5.88246713 -3 9 C-3.66 9 -4.32 9 -5 9 C-4.649375 9.763125 -4.29875 10.52625 -3.9375 11.3125 C-3 14 -3 14 -4 17 C-4 16.34 -4 15.68 -4 15 C-4.66 15 -5.32 15 -6 15 C-6 12.69 -6 10.38 -6 8 C-5.34 8 -4.68 8 -4 8 C-3.896875 7.05125 -3.79375 6.1025 -3.6875 5.125 C-3 2 -3 2 0 0 Z " fill="#9CAF5D" transform="translate(14,58)"/>
<path d="M0 0 C2.31 0 4.62 0 7 0 C7 0.99 7 1.98 7 3 C7.99 3 8.98 3 10 3 C10 3.66 10 4.32 10 5 C11.65 5 13.3 5 15 5 C14.67 5.99 14.34 6.98 14 8 C10.5625 6.75 10.5625 6.75 7 5 C6.0625 2.8125 6.0625 2.8125 6 1 C4.02 1.33 2.04 1.66 0 2 C0 1.34 0 0.68 0 0 Z " fill="#9BB373" transform="translate(121,102)"/>
<path d="M0 0 C1.98 0 3.96 0 6 0 C5.67 1.32 5.34 2.64 5 4 C6.32 4 7.64 4 9 4 C9 4.66 9 5.32 9 6 C7.35 6 5.7 6 4 6 C3.67 5.01 3.34 4.02 3 3 C2.01 2.67 1.02 2.34 0 2 C0 1.34 0 0.68 0 0 Z " fill="#A0BF6E" transform="translate(171,56)"/>
<path d="M0 0 C2.4375 0.75 2.4375 0.75 5 2 C5.875 4.0625 5.875 4.0625 6 6 C5 7 5 7 2.4375 7.0625 C1.2309375 7.0315625 1.2309375 7.0315625 0 7 C-1.04449911 3.86650268 -0.93423645 3.01031744 0 0 Z " fill="#91BD57" transform="translate(146,18)"/>
<path d="M0 0 C1.98 0.99 1.98 0.99 4 2 C4 2.66 4 3.32 4 4 C6.64 3.67 9.28 3.34 12 3 C11.01 3.33 10.02 3.66 9 4 C9 4.66 9 5.32 9 6 C7.02 6 5.04 6 3 6 C3 5.34 3 4.68 3 4 C2.01 3.67 1.02 3.34 0 3 C0 2.01 0 1.02 0 0 Z " fill="#99B66E" transform="translate(80,116)"/>
<path d="M0 0 C0.99 0 1.98 0 3 0 C3.33 1.32 3.66 2.64 4 4 C4.66 4 5.32 4 6 4 C5.67 4.66 5.34 5.32 5 6 C4.34 6 3.68 6 3 6 C3 5.01 3 4.02 3 3 C-2.94 3.495 -2.94 3.495 -9 4 C-9 3.34 -9 2.68 -9 2 C-6.03 2 -3.06 2 0 2 C0 1.34 0 0.68 0 0 Z " fill="#A6B961" transform="translate(58,78)"/>
<path d="M0 0 C1.32 0 2.64 0 4 0 C4 1.98 4 3.96 4 6 C2.68 6.33 1.36 6.66 0 7 C0 4.69 0 2.38 0 0 Z " fill="#96BB47" transform="translate(78,153)"/>
<path d="M0 0 C0 0.66 0 1.32 0 2 C-1.98 2 -3.96 2 -6 2 C-6 2.99 -6 3.98 -6 5 C-7.65 5 -9.3 5 -11 5 C-10 2 -10 2 -8.3125 0.8125 C-5.45030907 -0.19313465 -3.01172092 -0.13689641 0 0 Z " fill="#99B660" transform="translate(123,117)"/>
<path d="M0 0 C0.33 0 0.66 0 1 0 C1.33 3.96 1.66 7.92 2 12 C1.01 12 0.02 12 -1 12 C-1.02687279 10.18757948 -1.04633715 8.37504767 -1.0625 6.5625 C-1.07410156 5.55316406 -1.08570312 4.54382813 -1.09765625 3.50390625 C-1 1 -1 1 0 0 Z " fill="#9FB35F" transform="translate(78,102)"/>
<path d="M0 0 C0.66 0 1.32 0 2 0 C2 2.31 2 4.62 2 7 C3.98 7 5.96 7 8 7 C8 7.66 8 8.32 8 9 C5.1875 9.3125 5.1875 9.3125 2 9 C0.0625 6.75 0.0625 6.75 -1 4 C-0.6875 1.6875 -0.6875 1.6875 0 0 Z " fill="#93B95D" transform="translate(172,87)"/>
<path d="M0 0 C1.32 0.33 2.64 0.66 4 1 C4.33 2.32 4.66 3.64 5 5 C6.65 5 8.3 5 10 5 C10 5.99 10 6.98 10 8 C7.69 7.34 5.38 6.68 3 6 C3 5.01 3 4.02 3 3 C2.01 3 1.02 3 0 3 C0 2.01 0 1.02 0 0 Z " fill="#98B95B" transform="translate(88,58)"/>
<path d="M0 0 C0.99 0.33 1.98 0.66 3 1 C3 2.98 3 4.96 3 7 C2.01 7 1.02 7 0 7 C-0.38133299 5.0085944 -0.71325582 3.00720923 -1 1 C-0.67 0.67 -0.34 0.34 0 0 Z " fill="#9DB678" transform="translate(172,41)"/>
<path d="M0 0 C2.31 0 4.62 0 7 0 C6.401875 0.2475 5.80375 0.495 5.1875 0.75 C2.71222841 2.16444091 1.66569196 3.72860188 0 6 C-0.66 6 -1.32 6 -2 6 C-2 5.01 -2 4.02 -2 3 C-1.34 3 -0.68 3 0 3 C0 2.01 0 1.02 0 0 Z " fill="#98BA52" transform="translate(60,124)"/>
<path d="M0 0 C0.99 0 1.98 0 3 0 C3 0.66 3 1.32 3 2 C3.99 2.33 4.98 2.66 6 3 C1.38 3 -3.24 3 -8 3 C-8 2.67 -8 2.34 -8 2 C-5.36 2 -2.72 2 0 2 C0 1.34 0 0.68 0 0 Z " fill="#9DB453" transform="translate(33,78)"/>
<path d="M0 0 C0.66 0.66 1.32 1.32 2 2 C1.01 4.31 0.02 6.62 -1 9 C-1.66 8.67 -2.32 8.34 -3 8 C-3 6.68 -3 5.36 -3 4 C-2.34 4 -1.68 4 -1 4 C-0.67 2.68 -0.34 1.36 0 0 Z " fill="#9CB93C" transform="translate(12,63)"/>
<path d="M0 0 C0.99 0 1.98 0 3 0 C3 1.32 3 2.64 3 4 C0.36 4 -2.28 4 -5 4 C-4.0409375 3.8453125 -4.0409375 3.8453125 -3.0625 3.6875 C-2.381875 3.460625 -1.70125 3.23375 -1 3 C-0.67 2.01 -0.34 1.02 0 0 Z " fill="#A1B56C" transform="translate(72,143)"/>
<path d="M0 0 C3.96 0 7.92 0 12 0 C12 0.33 12 0.66 12 1 C4.25 2.125 4.25 2.125 2 1 C2 1.66 2 2.32 2 3 C1.01 3 0.02 3 -1 3 C-0.67 2.01 -0.34 1.02 0 0 Z " fill="#9FC665" transform="translate(92,102)"/>
<path d="M0 0 C1.0326802 2.78823655 1.04509293 3.8677274 0.0625 6.75 C-0.288125 7.4925 -0.63875 8.235 -1 9 C-1.66 8.67 -2.32 8.34 -3 8 C-2.45276317 4.62537285 -1.9451 2.91765 0 0 Z " fill="#95BB5A" transform="translate(172,128)"/>
<path d="M0 0 C0.33 0 0.66 0 1 0 C1 1.65 1 3.3 1 5 C3.64 5 6.28 5 9 5 C9 5.33 9 5.66 9 6 C6.36 6 3.72 6 1 6 C0.67 6.99 0.34 7.98 0 9 C-1.10844919 5.67465243 -0.84454356 3.37817425 0 0 Z " fill="#95B567" transform="translate(171,47)"/>
<path d="M0 0 C1.65 0 3.3 0 5 0 C5 0.66 5 1.32 5 2 C5.66 2.33 6.32 2.66 7 3 C5.02 3.99 5.02 3.99 3 5 C3 4.01 3 3.02 3 2 C2.01 2 1.02 2 0 2 C0 1.34 0 0.68 0 0 Z " fill="#AAD765" transform="translate(158,36)"/>
<path d="M0 0 C0.66 1.32 1.32 2.64 2 4 C2.66 4 3.32 4 4 4 C4 4.99 4 5.98 4 7 C4.66 7.33 5.32 7.66 6 8 C5.01 8 4.02 8 3 8 C3 7.34 3 6.68 3 6 C2.01 5.67 1.02 5.34 0 5 C0 3.35 0 1.7 0 0 Z " fill="#9DB15B" transform="translate(24,139)"/>
</svg>
